<svg xmlns="http://www.w3.org/2000/svg" viewBox="0 0 100 100" role="img" aria-label="Nexsate">
  <!--
    Generated by scripts/build-brand-assets.py from public/brand/nexsate-wordmark.png
    (vector-traced leading "N"). Do not hand-edit: re-run the script instead.
  -->
  <defs>
    <linearGradient id="tile" x1="0" y1="0" x2="1" y2="1">
      <stop offset="0" stop-color="#0693e3"/>
      <stop offset="1" stop-color="#010ed0"/>
    </linearGradient>
  </defs>
  <rect width="100" height="100" rx="22" fill="url(#tile)"/>
  <g transform="translate(13.000 20.354) scale(0.45963)">
    <path d="M26,1 39,1 40,2 48,4 50,6 51,6 61,16 61,17 79,36 79,37 87,45 87,46 97,56 97,57 105,65 105,66 123,85 124,85 126,83 126,2 158,2 159,3 158,4 158,7 159,8 158,108 157,109 157,112 154,118 150,122 141,126 126,126 125,125 119,124 114,121 82,87 82,86 72,76 72,75 59,62 59,61 50,52 50,51 38,39 35,42 35,124 34,125 2,125 2,20 3,19 4,14 11,6 19,2 25,2Z" fill="#ffffff" fill-rule="evenodd"/>
  </g>
</svg>
